#tb 0: 1/25
#media_type 0: video
#codec_id 0: rawvideo
#dimensions 0: 284x240
#sar 0: 0/1
0,          0,          0,        1,   102240, 0xb3cbf83b
0,          1,          1,        1,   102240, 0xc8c2a704
0,          3,          3,        1,   102240, 0x19dd0989
0,          4,          4,        1,   102240, 0xc34717eb
0,          5,          5,        1,   102240, 0x37828a99
0,          6,          6,        1,   102240, 0xcadc0f69
0,          7,          7,        1,   102240, 0x342bf32f
0,          8,          8,        1,   102240, 0x7b311bf1
0,          9,          9,        1,   102240, 0xf56e0cd3
